<svg xmlns="http://www.w3.org/2000/svg" width="128" height="128" viewBox="0 0 128 128">
  <defs>
    <radialGradient id="g1" cx="50%" cy="50%" r="60%">
      <stop offset="0%" stop-color="#7dd3c0"/>
      <stop offset="60%" stop-color="#7dd3c0" stop-opacity="0.4"/>
      <stop offset="100%" stop-color="#7dd3c0" stop-opacity="0"/>
    </radialGradient>
    <linearGradient id="ring" x1="0%" y1="0%" x2="100%" y2="100%">
      <stop offset="0%" stop-color="#6a5cff"/>
      <stop offset="100%" stop-color="#00d9ff"/>
    </linearGradient>
    <filter id="glow" x="-50%" y="-50%" width="200%" height="200%">
      <feGaussianBlur stdDeviation="3" result="b"/>
      <feMerge>
        <feMergeNode in="b"/>
        <feMergeNode in="SourceGraphic"/>
      </feMerge>
    </filter>
  </defs>
  <rect width="128" height="128" fill="none"/>
  <circle cx="64" cy="64" r="60" fill="none" stroke="url(#ring)" stroke-width="2" filter="url(#glow)"/>
  <circle cx="64" cy="64" r="52" fill="url(#g1)"/>
  <!-- abstract seed spiral -->
  <path d="M64 40c-10 0-18 8-18 18 0 14 12 24 26 22 8-1 14-8 14-16 0-8-6-14-14-14-6 0-10 4-10 9 0 4 3 7 7 7" fill="none" stroke="#c084fc" stroke-width="3" stroke-linecap="round" filter="url(#glow)"/>
  <circle cx="74" cy="71" r="3" fill="#ff79c6"/>
</svg>